<?xml version="1.0" encoding="utf-8"?>
<!-- Generator: Adobe Illustrator 21.0.0, SVG Export Plug-In . SVG Version: 6.00 Build 0)  -->
<svg version="1.1" id="Layer_1" xmlns="http://www.w3.org/2000/svg" xmlns:xlink="http://www.w3.org/1999/xlink" x="0px" y="0px"
	 viewBox="0 0 24 24" style="enable-background:new 0 0 24 24;" xml:space="preserve">
<style type="text/css">
	.st0{display:none;}
	.st1{display:inline;fill:#F1F1F2;}
	.st2{fill:none;}
	.st3{display:inline;}
	.st4{fill:#FFFFFF;}
	.st5{opacity:0.3;enable-background:new    ;}
</style>
<g id="Header_x2F_BG" class="st0">
	<rect x="-402" y="-50" class="st1" width="520" height="520"/>
</g>
<g id="Bounding_Boxes">
	<g id="ui_x5F_spec_x5F_header_copy_3">
	</g>
	<path class="st2" d="M0,0h24v24H0V0z"/>
</g>
<g id="Rounded" class="st0">
	<g id="ui_x5F_spec_x5F_header_copy_5" class="st3">
	</g>
	<path class="st3" d="M12,2C6.5,2,2,6.5,2,12s4.5,10,10,10s10-4.5,10-10S17.5,2,12,2z M12,5c1.7,0,3,1.3,3,3s-1.3,3-3,3S9,9.7,9,8
		S10.3,5,12,5z M12,19.2c-2.5,0-4.7-1.3-6-3.2c0-2,4-3.1,6-3.1c2,0,6,1.1,6,3.1C16.7,17.9,14.5,19.2,12,19.2z"/>
</g>
<g id="Sharp" class="st0">
	<g id="ui_x5F_spec_x5F_header_copy_4" class="st3">
	</g>
	<path class="st3" d="M12,2C6.5,2,2,6.5,2,12s4.5,10,10,10s10-4.5,10-10S17.5,2,12,2z M12,5c1.7,0,3,1.3,3,3s-1.3,3-3,3S9,9.7,9,8
		S10.3,5,12,5z M12,19.2c-2.5,0-4.7-1.3-6-3.2c0-2,4-3.1,6-3.1c2,0,6,1.1,6,3.1C16.7,17.9,14.5,19.2,12,19.2z"/>
</g>
<g id="Outline">
	<g id="ui_x5F_spec_x5F_header">
	</g>
	<g>
		<path class="st4" d="M12,2C6.5,2,2,6.5,2,12s4.5,10,10,10s10-4.5,10-10S17.5,2,12,2z M7.1,18.3c0.4-0.9,3-1.8,4.9-1.8
			s4.5,0.9,4.9,1.8C15.6,19.4,13.9,20,12,20S8.4,19.4,7.1,18.3z M18.4,16.8c-1.4-1.7-4.9-2.3-6.4-2.3s-4.9,0.6-6.4,2.3
			c-1-1.3-1.6-3-1.6-4.8c0-4.4,3.6-8,8-8s8,3.6,8,8C20,13.8,19.4,15.5,18.4,16.8z"/>
		<path class="st4" d="M12,6c-1.9,0-3.5,1.6-3.5,3.5S10.1,13,12,13s3.5-1.6,3.5-3.5S13.9,6,12,6z M12,11c-0.8,0-1.5-0.7-1.5-1.5
			S11.2,8,12,8s1.5,0.7,1.5,1.5S12.8,11,12,11z"/>
	</g>
</g>
<g id="Duotone" class="st0">
	<g id="ui_x5F_spec_x5F_header_copy_2" class="st3">
	</g>
	<g class="st3">
		<path class="st5" d="M12,4c-4.4,0-8,3.6-8,8c0,1.8,0.6,3.5,1.6,4.8c1.4-1.7,4.9-2.3,6.4-2.3s4.9,0.6,6.4,2.3c1-1.3,1.6-3,1.6-4.8
			C20,7.6,16.4,4,12,4z M12,13c-1.9,0-3.5-1.6-3.5-3.5S10.1,6,12,6s3.5,1.6,3.5,3.5S13.9,13,12,13z"/>
		<g>
			<path d="M12,2C6.5,2,2,6.5,2,12s4.5,10,10,10s10-4.5,10-10S17.5,2,12,2z M7.1,18.3c0.4-0.9,3-1.8,4.9-1.8s4.5,0.9,4.9,1.8
				C15.6,19.4,13.9,20,12,20S8.4,19.4,7.1,18.3z M18.4,16.8c-1.4-1.7-4.9-2.3-6.4-2.3s-4.9,0.6-6.4,2.3c-1-1.3-1.6-3-1.6-4.8
				c0-4.4,3.6-8,8-8s8,3.6,8,8C20,13.8,19.4,15.5,18.4,16.8z"/>
			<path d="M12,6c-1.9,0-3.5,1.6-3.5,3.5S10.1,13,12,13s3.5-1.6,3.5-3.5S13.9,6,12,6z M12,11c-0.8,0-1.5-0.7-1.5-1.5S11.2,8,12,8
				s1.5,0.7,1.5,1.5S12.8,11,12,11z"/>
		</g>
	</g>
</g>
<g id="Fill" class="st0">
	<g id="ui_x5F_spec_x5F_header_copy" class="st3">
	</g>
	<path class="st3" d="M12,2C6.5,2,2,6.5,2,12s4.5,10,10,10s10-4.5,10-10S17.5,2,12,2z M12,5c1.7,0,3,1.3,3,3s-1.3,3-3,3S9,9.7,9,8
		S10.3,5,12,5z M12,19.2c-2.5,0-4.7-1.3-6-3.2c0-2,4-3.1,6-3.1c2,0,6,1.1,6,3.1C16.7,17.9,14.5,19.2,12,19.2z"/>
</g>
<g id="nyt_x5F_exporter_x5F_info" class="st0">
</g>
</svg>
