<?xml version="1.0" encoding="utf-8"?>
<!-- Generator: Adobe Illustrator 21.0.0, SVG Export Plug-In . SVG Version: 6.00 Build 0)  -->
<svg version="1.1" id="Layer_1" xmlns="http://www.w3.org/2000/svg" xmlns:xlink="http://www.w3.org/1999/xlink" x="0px" y="0px"
	 viewBox="0 0 24 24" style="enable-background:new 0 0 24 24;" xml:space="preserve">
<style type="text/css">
	.st0{display:none;}
	.st1{fill:none;}
	.st2{display:inline;}
	.st3{fill:#0097A7;}
	.st4{opacity:0.3;enable-background:new    ;}
</style>
<g id="Bounding_Boxes">
	<g id="ui_x5F_spec_x5F_header_copy_3" class="st0">
	</g>
	<path class="st1" d="M0,0h24v24H0V0z"/>
</g>
<g id="Rounded" class="st0">
	<g id="ui_x5F_spec_x5F_header_copy_5" class="st2">
	</g>
	<path class="st2" d="M18,8h-1V6c0-2.8-2.2-5-5-5S7,3.2,7,6v2H6c-1.1,0-2,0.9-2,2v10c0,1.1,0.9,2,2,2h12c1.1,0,2-0.9,2-2V10
		C20,8.9,19.1,8,18,8z M12,17c-1.1,0-2-0.9-2-2s0.9-2,2-2s2,0.9,2,2S13.1,17,12,17z M9,8V6c0-1.7,1.3-3,3-3s3,1.3,3,3v2H9z"/>
</g>
<g id="Sharp" class="st0">
	<g id="ui_x5F_spec_x5F_header_copy_4" class="st2">
	</g>
	<path class="st2" d="M20,8h-3V6.2c0-2.6-1.9-4.9-4.5-5.2C9.5,0.7,7,3.1,7,6v2H4v14h16V8z M12,17c-1.1,0-2-0.9-2-2s0.9-2,2-2
		s2,0.9,2,2S13.1,17,12,17z M9,8V6c0-1.7,1.3-3,3-3s3,1.3,3,3v2H9z"/>
</g>
<g id="Outline">
	<g id="ui_x5F_spec_x5F_header" class="st0">
	</g>
	<path class="st3" d="M18,8h-1V6c0-2.8-2.2-5-5-5S7,3.2,7,6v2H6c-1.1,0-2,0.9-2,2v10c0,1.1,0.9,2,2,2h12c1.1,0,2-0.9,2-2V10
		C20,8.9,19.1,8,18,8z M9,6c0-1.7,1.3-3,3-3s3,1.3,3,3v2H9V6z M18,20H6V10h12V20z M12,17c1.1,0,2-0.9,2-2s-0.9-2-2-2s-2,0.9-2,2
		S10.9,17,12,17z"/>
</g>
<g id="Duotone" class="st0">
	<g id="ui_x5F_spec_x5F_header_copy_2" class="st2">
	</g>
	<g class="st2">
		<path class="st4" d="M6,20h12V10H6V20z M12,13c1.1,0,2,0.9,2,2s-0.9,2-2,2s-2-0.9-2-2S10.9,13,12,13z"/>
		<path d="M18,8h-1V6c0-2.8-2.2-5-5-5S7,3.2,7,6v2H6c-1.1,0-2,0.9-2,2v10c0,1.1,0.9,2,2,2h12c1.1,0,2-0.9,2-2V10C20,8.9,19.1,8,18,8
			z M9,6c0-1.7,1.3-3,3-3s3,1.3,3,3v2H9V6z M18,20H6V10h12V20z M12,17c1.1,0,2-0.9,2-2s-0.9-2-2-2s-2,0.9-2,2S10.9,17,12,17z"/>
	</g>
</g>
<g id="Material" class="st0">
	<g id="ui_x5F_spec_x5F_header_copy" class="st2">
	</g>
	<path class="st2" d="M18,8h-1V6c0-2.8-2.2-5-5-5S7,3.2,7,6v2H6c-1.1,0-2,0.9-2,2v10c0,1.1,0.9,2,2,2h12c1.1,0,2-0.9,2-2V10
		C20,8.9,19.1,8,18,8z M12,17c-1.1,0-2-0.9-2-2s0.9-2,2-2s2,0.9,2,2S13.1,17,12,17z M9,8V6c0-1.7,1.3-3,3-3s3,1.3,3,3v2H9z"/>
</g>
</svg>
